# xmcd CD database file
#
# Track frame offsets:
#	150
#	14182
#	29805
#	40610
#	53765
#	69525
#	86412
#	101662
#	117185
#	135747
#	148997
#
# Disc length: 2315 seconds
#
# Revision: 0
# Processed by: cddbd v1.5PL3 Copyright (c) Steve Scherf et al.
# Submitted via: CDex 1.50beta8
#
DISCID=a009090b
DTITLE=JELLY→ - BE SILENT FUCKIN' RIOT
DYEAR=1900
DGENRE=Punk Rock
TTITLE0=アロワナ
TTITLE1=SEXしてない
TTITLE2=イノセント
TTITLE3=VIDEO CAN'T KILL MY LIFE
TTITLE4=SECRET SERVICE
TTITLE5=MARIBU&COKE
TTITLE6=BE SILENT FUCKIN' RIOT
TTITLE7=Freedom will be there
TTITLE8=VELVET SNOOZER
TTITLE9=素晴らしき若きロクデナシ
TTITLE10=I want someone everytime, want everyone everynight
EXTD=
EXTT0=
EXTT1=
EXTT2=
EXTT3=
EXTT4=
EXTT5=
EXTT6=
EXTT7=
EXTT8=
EXTT9=
EXTT10=
PLAYORDER=
